<?xml version="1.0" encoding="UTF-8" standalone="no"?>
<svg
   xmlns:dc="http://purl.org/dc/elements/1.1/"
   xmlns:cc="http://creativecommons.org/ns#"
   xmlns:rdf="http://www.w3.org/1999/02/22-rdf-syntax-ns#"
   xmlns:svg="http://www.w3.org/2000/svg"
   xmlns="http://www.w3.org/2000/svg"
   xmlns:sodipodi="http://sodipodi.sourceforge.net/DTD/sodipodi-0.dtd"
   xmlns:inkscape="http://www.inkscape.org/namespaces/inkscape"
   id="Layer_1"
   data-name="Layer 1"
   width="284"
   height="124"
   viewBox="0 0 284 124"
   version="1.1"
   sodipodi:docname="xrmass.svg"
   inkscape:version="0.92.2 5c3e80d, 2017-08-06">
  <metadata
     id="metadata61">
    <rdf:RDF>
      <cc:Work
         rdf:about="">
        <dc:format>image/svg+xml</dc:format>
        <dc:type
           rdf:resource="http://purl.org/dc/dcmitype/StillImage" />
        <dc:title>Artboard 1</dc:title>
      </cc:Work>
    </rdf:RDF>
  </metadata>
  <sodipodi:namedview
     pagecolor="#ffffff"
     bordercolor="#666666"
     borderopacity="1"
     objecttolerance="10"
     gridtolerance="10"
     guidetolerance="10"
     inkscape:pageopacity="0"
     inkscape:pageshadow="2"
     inkscape:window-width="1280"
     inkscape:window-height="755"
     id="namedview59"
     showgrid="false"
     inkscape:zoom="1.7325741"
     inkscape:cx="194.95537"
     inkscape:cy="50.435001"
     inkscape:window-x="0"
     inkscape:window-y="1"
     inkscape:window-maximized="1"
     inkscape:current-layer="Layer_1" />
  <defs
     id="defs4">
    <style
       id="style2">
      .cls-1 {
        fill: #fff;
      }
    </style>
  </defs>
  <title
     id="title6">Artboard 1</title>
  <g
     id="g28"
     transform="translate(6.2254738,7.0972738)">
    <path
       class="cls-1"
       d="m 53.41,8.36 c 1.69,0.23 3.38,0.42 5.06,0.69 a 41.72,41.72 0 1 1 -13,-0.15 c 1.44,-0.22 2.9,-0.37 4.35,-0.55 z m 2.75,41.9 21,24.19 a 35.08,35.08 0 0 0 0,-48.38 z M 26,74.41 47,50.26 26,26.11 c -13.09,13.2 -12.74,35.6 0,48.3 z m 2.77,2.65 c 12.9,11.61 33.56,11 45.51,0 z m 0,-53.65 h 45.62 a 35.07,35.07 0 0 0 -45.56,0 z m 35.73,47 -13,-14.91 -13,14.91 z M 38.68,30.17 51.59,45 64.5,30.17 Z"
       id="path8"
       inkscape:connector-curvature="0"
       style="fill:#ffffff" />
    <path
       class="cls-1"
       d="M 175.66,60.11 V 50.06 l 26.59,-2.88 c 0,0.6 0,1.07 0,1.54 q 0,13.26 0,26.52 c 0,1.57 0.07,1.63 1.6,1.64 0.88,0 1.76,0 2.64,0 0.88,0 1.27,-0.34 1.26,-1.28 0,-4.52 0,-9 0,-13.56 q 0,-7 0,-14 v -1.45 l 2,-0.19 v 1.49 q 0,13.68 0,27.36 c 0,1.6 0,1.62 1.59,1.63 h 2.28 c 1.49,0 1.56,-0.08 1.56,-1.55 q 0,-10.2 0,-20.4 c 0,-3 0,-6 0,-9.14 l 45.51,-4.92 v 41.19 h -151 V 57.2 l 60.63,-6.56 v 1.52 c 0,7.76 0,15.52 0,23.28 0,1.1 0.31,1.55 1.42,1.46 a 14.65,14.65 0 0 1 2.16,0 c 1.1,0.07 2.07,0 1.85,-1.8 0.58,0.46 0.94,0.71 1.27,1 1.68,1.54 3.56,1.54 5.05,-0.17 a 8.45,8.45 0 0 0 1.65,-2.75 19.47,19.47 0 0 0 0.28,-11.56 7.71,7.71 0 0 0 -1,-2.17 c -1.5,-2.3 -3.62,-2.52 -5.65,-0.69 -0.46,0.43 -0.99,0.8 -1.69,1.35 z m 64.29,7.11 a 42.08,42.08 0 0 0 -1.31,-5.59 6,6 0 0 0 -5.8,-4.07 c -3,-0.12 -5.26,1.08 -6.44,3.84 a 14.53,14.53 0 0 0 -0.1,11.64 6.69,6.69 0 0 0 6.9,4.16 6.24,6.24 0 0 0 5.8,-4.78 47.73,47.73 0 0 0 0.94,-5.2 z m -80.11,2.14 c 2.61,0 5,0 7.31,0 0.76,0 1.38,-0.12 1.44,-1 a 14.06,14.06 0 0 0 -0.85,-6.82 6.29,6.29 0 0 0 -6,-3.94 c -2.82,-0.08 -5.07,1 -6.2,3.65 a 14.23,14.23 0 0 0 0.35,12.75 6.88,6.88 0 0 0 9.7,2.3 A 5.35,5.35 0 0 0 168,72 c 0.05,-0.68 -0.18,-1.06 -0.95,-1 -0.77,0.06 -1.69,-0.08 -2.51,0 -0.45,0.07 -0.84,0.5 -1.27,0.75 -0.43,0.25 -1.14,0.83 -1.69,0.8 a 2.07,2.07 0 0 1 -1.37,-1.07 7.5,7.5 0 0 1 -0.37,-2.12 z m 31.8,0.15 a 3.08,3.08 0 0 1 0.47,-0.13 c 2.28,0 4.55,0 6.83,0 1,0 1.48,-0.35 1.41,-1.3 a 32.41,32.41 0 0 0 -0.6,-5.78 6.14,6.14 0 0 0 -6.29,-4.73 6.31,6.31 0 0 0 -6.6,4.51 15.17,15.17 0 0 0 0.19,10.78 c 1.48,3.75 4.75,5.31 8.63,4.22 a 5.43,5.43 0 0 0 4.1,-4.9 c 0.08,-0.79 -0.11,-1.23 -1,-1.18 a 22.46,22.46 0 0 1 -2.4,0 1.48,1.48 0 0 0 -1.43,0.8 2.17,2.17 0 0 1 -1.66,0.79 2.09,2.09 0 0 1 -1.35,-1.09 6.39,6.39 0 0 1 -0.3,-1.99 z M 247.11,60 c -0.28,-2 -0.28,-2 -2.15,-2 -0.84,0 -1.68,0 -2.52,0 -0.67,0 -0.92,0.26 -0.92,0.92 q 0,8.46 0,16.91 c 0,0.8 0.38,1.06 1.1,1 0.72,-0.06 1.68,0 2.52,0 1.82,0 1.82,0 1.82,-1.77 0,-3.36 0,-6.72 0,-10.08 0,-1.19 0.52,-1.79 1.48,-1.74 1.15,0.05 1,0.94 1,1.68 0,3.52 0,7 0,10.56 0,1.08 0.39,1.43 1.4,1.37 a 18,18 0 0 1 2.4,0 c 1.06,0.07 1.37,-0.39 1.36,-1.41 0,-4.4 0,-8.8 0,-13.19 a 8.24,8.24 0 0 0 -0.6,-3 2.83,2.83 0 0 0 -4.32,-1.22 c -0.5,0.32 -0.91,0.78 -1.37,1.15 -0.46,0.37 -0.73,0.5 -1.2,0.82 z m -98.36,-0.13 a 2.25,2.25 0 0 1 -0.09,-0.56 c 0.15,-1.07 -0.32,-1.42 -1.36,-1.34 a 27.35,27.35 0 0 1 -3.12,0 c -0.73,0 -1,0.25 -1,1 q 0,8.4 0,16.79 c 0,0.86 0.37,1.13 1.16,1.12 1,0 1.92,0 2.88,0 0.96,0 1.46,-0.37 1.44,-1.47 -0.06,-3 0,-6.08 0,-9.12 a 2.21,2.21 0 0 1 1.88,-2.53 c 0.6,-0.17 1.27,-0.12 1.88,-0.28 0.3,-0.08 0.75,-0.41 0.76,-0.64 0.06,-1.74 0,-3.49 0,-5.23 -2.12,-0.36 -2.85,1.73 -4.43,2.28 z m 74.38,7.45 c 0,-2.72 0,-5.43 0,-8.15 0,-1 -0.33,-1.26 -1.24,-1.2 a 28.35,28.35 0 0 1 -3.11,0 c -0.78,0 -1,0.23 -1,1 q 0,8.39 0,16.78 c 0,0.77 0.28,1.1 1,1.09 1,0 2.08,0 3.12,0 1.04,0 1.25,-0.35 1.23,-1.28 -0.04,-2.71 -0.01,-5.47 -0.01,-8.22 z m -2.67,-11.46 a 3.24,3.24 0 0 0 3.23,-3.18 3.2,3.2 0 0 0 -3.21,-3.17 3.25,3.25 0 0 0 -3.32,3.22 3.33,3.33 0 0 0 3.29,3.15 z"
       id="path10"
       inkscape:connector-curvature="0"
       style="fill:#ffffff" />
    <path
       class="cls-1"
       d="m 248.4,38.08 -21.51,2.33 c 0,-0.47 0,-0.85 0,-1.23 0,-3.6 0,-7.2 0,-10.8 a 9.83,9.83 0 0 0 -0.13,-1.55 c -0.23,-1.44 -0.74,-2.72 -2.3,-3.21 -1.56,-0.49 -2.6,0.31 -3.63,1.29 -0.41,0.39 -0.89,0.71 -1.42,1.12 C 219.07,24 219.07,24 217,24 c -3.19,0 -3.19,0 -3.19,3.2 0,4.52 0,9 0,13.56 0,0.87 -0.23,1.21 -1.13,1.25 -1.31,0.06 -2.62,0.25 -4,0.39 4.23,-4 4.08,-8.87 2.79,-13.86 a 6.27,6.27 0 0 0 -6.59,-5 6.43,6.43 0 0 0 -6.51,5 16.18,16.18 0 0 0 -0.16,9 8.27,8.27 0 0 0 4.6,5.46 L 97.41,54.41 V 13.2 h 151 z M 159.6,26 a 2.73,2.73 0 0 1 -0.11,-0.65 c 0.2,-1.24 -0.43,-1.49 -1.51,-1.4 a 20.74,20.74 0 0 1 -2.87,0 c -0.8,0 -1,0.28 -1,1 q 0,8.33 0,16.66 c 0,1 0.41,1.27 1.3,1.24 0.89,-0.03 1.84,0 2.76,0 0.92,0 1.39,-0.37 1.38,-1.41 -0.05,-3.55 0,-7.11 0,-10.67 A 1.41,1.41 0 0 1 161,29.24 c 1.05,0.05 0.89,0.84 0.89,1.5 0,3.6 0,7.19 0,10.79 0,1 0.35,1.41 1.33,1.36 a 20.93,20.93 0 0 1 2.4,0 c 1.15,0.08 1.52,-0.4 1.51,-1.55 -0.06,-4.31 0,-8.63 -0.05,-12.94 a 8.89,8.89 0 0 0 -0.67,-3.24 2.74,2.74 0 0 0 -4,-1.29 13.57,13.57 0 0 0 -1.59,1.25 c -0.36,0.28 -0.74,0.53 -1.22,0.88 z m -49.55,9.36 h 1.37 c 1.92,0 3.84,0 5.75,0 1.19,0 1.73,-0.47 1.69,-1.6 a 26.63,26.63 0 0 0 -0.28,-4.28 c -0.78,-3.87 -3.14,-5.91 -6.69,-6 -3.55,-0.09 -5.89,1.85 -6.89,5.73 a 15.61,15.61 0 0 0 0.18,8.63 c 0.91,2.94 2.64,5.09 5.94,5.49 3.79,0.47 6.93,-1.83 7.15,-5.21 0.05,-0.81 -0.15,-1.21 -1,-1.17 -0.85,0.04 -1.69,-0.07 -2.51,0 a 1.78,1.78 0 0 0 -1.15,0.73 1.53,1.53 0 0 1 -1.91,0.81 2.91,2.91 0 0 1 -1.3,-1.34 6,6 0 0 1 -0.35,-1.79 z m 24.6,7.52 a 11.75,11.75 0 0 0 -0.54,-1.25 c -1.43,-2.45 -2.85,-4.9 -4.34,-7.31 a 1.89,1.89 0 0 1 0,-2.2 c 1.33,-2.28 2.59,-4.58 3.87,-6.89 0.2,-0.36 0.34,-0.74 0.58,-1.27 -1.78,0 -3.34,0 -4.89,0 a 1.34,1.34 0 0 0 -1.44,1 c -0.39,1 -0.83,1.93 -1.25,2.89 h -0.33 c -0.41,-0.94 -0.77,-1.9 -1.24,-2.81 -0.2,-0.39 -0.59,-0.94 -0.92,-1 -1.73,-0.1 -3.47,0 -5.43,0 0.27,0.56 0.41,0.91 0.6,1.24 1.22,2.2 2.4,4.42 3.7,6.57 a 2.46,2.46 0 0 1 -0.07,3 c -1.41,2.22 -2.72,4.51 -4.05,6.78 a 12,12 0 0 0 -0.57,1.35 c 1.67,0 3.11,0 4.54,0 a 1.57,1.57 0 0 0 1.66,-1.08 c 0.39,-0.92 0.83,-1.81 1.3,-2.69 a 4,4 0 0 1 0.67,-0.74 4.68,4.68 0 0 1 0.64,0.78 c 0.48,0.92 0.84,1.9 1.38,2.78 a 1.94,1.94 0 0 0 1.24,0.89 c 1.55,0.03 3.11,-0.04 4.89,-0.04 z M 182.09,28.63 V 30 q 0,5.63 0,11.27 c 0,1.51 0.1,1.6 1.65,1.61 0.8,0 1.6,0 2.4,0 1,0.06 1.42,-0.3 1.41,-1.38 -0.05,-3.87 0,-7.75 0,-11.63 v -1.24 c 1.76,-0.2 1.76,-0.2 1.76,-2 q 0,-0.36 0,-0.72 c 0,-1.8 0,-1.8 -1.76,-2.17 0,-1.29 0,-2.61 0,-3.92 0,-0.91 -0.33,-1.2 -1.19,-1.16 a 26.48,26.48 0 0 1 -3,0 c -1,-0.07 -1.33,0.39 -1.28,1.35 0.06,1.27 0,2.54 0,3.78 -1.76,0.23 -1.76,0.23 -1.76,2 q 0,0.48 0,1 c 0.01,1.64 0.01,1.64 1.77,1.84 z m -39.4,-4.72 c 0,-1.47 0,-2.86 0,-4.25 0,-0.68 -0.26,-0.94 -0.91,-0.93 -1.12,0 -2.24,0 -3.35,0 -0.92,0 -1.18,0.37 -1.16,1.21 0,1.31 0,2.62 0,3.92 -2.17,0.29 -1.73,0 -1.8,2 0,0.24 0,0.48 0,0.72 0,1.77 0,1.77 1.75,2 0,0.34 0,0.7 0,1.05 0,4 0,7.91 0,11.86 0,1 0.37,1.38 1.34,1.33 a 23.8,23.8 0 0 1 2.63,0 c 1.06,0.07 1.48,-0.29 1.46,-1.43 -0.06,-3.87 0,-7.75 0,-11.62 v -1.18 c 1.8,-0.12 1.8,-0.12 1.8,-1.8 q 0,-0.54 0,-1.08 C 144.48,24 144.48,24 142.68,23.9 Z m 35.94,13.78 c -2.22,0.42 -2.81,0.34 -3.32,-0.74 a 7.93,7.93 0 0 1 0.05,-7.16 1.68,1.68 0 0 1 2.23,-0.87 c 0.28,0.1 0.58,0.14 1,0.26 0,-1.15 0,-2.18 0,-3.2 a 2.17,2.17 0 0 0 -1.75,-2.26 6.09,6.09 0 0 0 -7.33,3.86 16,16 0 0 0 0,11.81 5.85,5.85 0 0 0 7.55,3.5 c 0.81,-0.26 1.48,-0.69 1.52,-1.64 0.08,-1.16 0.05,-2.31 0.05,-3.57 z m -32.06,-4.36 c 0,2.76 0,5.52 0,8.27 0,0.75 0.17,1.28 1,1.28 1.16,0 2.32,0 3.48,0 0.68,0 1,-0.36 1,-1.06 q 0,-8.45 0,-16.9 c 0,-0.75 -0.33,-1 -1,-1 -1.08,0 -2.16,0.06 -3.24,0 -1.08,-0.06 -1.27,0.27 -1.25,1.22 0.04,2.75 0.01,5.46 0.01,8.18 z m 44.12,0 c 0,2.79 0,5.59 0,8.38 0,0.9 0.34,1.23 1.19,1.21 1,0 2.07,0 3.11,0 0.71,0 1.12,-0.25 1.12,-1 q 0,-8.5 0,-17 c 0,-0.68 -0.3,-0.9 -1,-0.88 -1.08,0 -2.16,0.06 -3.23,0 -1.07,-0.06 -1.26,0.23 -1.24,1.21 0.09,2.61 0.05,5.33 0.05,8.04 z M 149.3,15.47 a 3.1802516,3.1802516 0 1 0 0.08,6.36 3.1802516,3.1802516 0 1 0 -0.08,-6.36 z m 44,6.37 a 3.18,3.18 0 1 0 0.17,-6.35 3.18,3.18 0 1 0 -0.17,6.35 z"
       id="path12"
       inkscape:connector-curvature="0"
       style="fill:#ffffff" />
    <path
       class="cls-1"
       d="m 221.75,40.93 -2.38,0.3 a 4.79,4.79 0 0 1 -0.11,-0.71 c 0,-3.16 -0.05,-6.31 0,-9.47 a 2.42,2.42 0 0 1 1,-1.69 c 0.75,-0.49 1.47,0 1.49,0.87 0.02,3.56 0,7.11 0,10.7 z"
       id="path14"
       inkscape:connector-curvature="0"
       style="fill:#ffffff" />
    <path
       class="cls-1"
       d="m 203.51,33.17 c 0,-0.87 0.09,-1.78 0.13,-2.7 a 1.32,1.32 0 0 1 1.36,-1.39 1.27,1.27 0 0 1 1.45,1.27 c 0.07,1.91 0.07,3.82 0,5.72 A 1.28,1.28 0 0 1 205,37.34 1.3,1.3 0 0 1 203.65,36 c -0.05,-1 -0.09,-1.88 -0.14,-2.83 z"
       id="path16"
       inkscape:connector-curvature="0"
       style="fill:#ffffff" />
    <path
       class="cls-1"
       d="m 178.44,67.24 c 0,0.88 0,1.76 0,2.63 a 1.405,1.405 0 0 1 -2.81,0 c 0,-1.79 -0.05,-3.59 0,-5.38 a 1.28,1.28 0 0 1 1.5,-1.33 1.27,1.27 0 0 1 1.31,1.4 c 0.02,0.93 0,1.81 0,2.68 z"
       id="path18"
       inkscape:connector-curvature="0"
       style="fill:#ffffff" />
    <path
       class="cls-1"
       d="m 234,67.3 -0.11,2.7 a 1.3,1.3 0 0 1 -1.36,1.37 1.27,1.27 0 0 1 -1.44,-1.29 c -0.07,-1.87 -0.06,-3.75 0,-5.63 a 1.25,1.25 0 0 1 1.42,-1.29 1.27,1.27 0 0 1 1.37,1.34 c 0.06,0.96 0.12,1.88 0.12,2.8 z"
       id="path20"
       inkscape:connector-curvature="0"
       style="fill:#ffffff" />
    <path
       class="cls-1"
       d="m 161.69,65.49 c -0.61,-0.28 -1.67,0.47 -1.75,-0.83 a 2,2 0 0 1 1.78,-2.15 1.9,1.9 0 0 1 1.78,2.12 c -0.05,1.37 -1.21,0.54 -1.81,0.86 z"
       id="path22"
       inkscape:connector-curvature="0"
       style="fill:#ffffff" />
    <path
       class="cls-1"
       d="m 193.5,65.49 c -0.61,-0.28 -1.67,0.48 -1.81,-0.75 a 2,2 0 0 1 1.84,-2.23 1.93,1.93 0 0 1 1.72,2.18 c -0.1,1.31 -1.17,0.5 -1.75,0.8 z"
       id="path24"
       inkscape:connector-curvature="0"
       style="fill:#ffffff" />
    <path
       class="cls-1"
       d="m 111.6,31.63 c -0.45,-0.28 -1.33,-0.51 -1.42,-0.93 a 1.9,1.9 0 0 1 1.82,-2.21 1.87,1.87 0 0 1 1.71,2.17 c -0.13,1.4 -1.29,0.41 -2.11,0.97 z"
       id="path26"
       inkscape:connector-curvature="0"
       style="fill:#ffffff" />
  </g>
</svg>
