<svg id="Layer_1" data-name="Layer 1" xmlns="http://www.w3.org/2000/svg" width="528.93" height="100.87" viewBox="0 0 528.93 100.87">
  <defs>
    <style>
      .cls-1 {
        fill: #fff;
      }

      .cls-2 {
        fill: #22a83e;
      }
    </style>
  </defs>
  <title>Artboard 1</title>
  <g>
    <path class="cls-1" d="M53.41,8.36c1.69.23,3.38.42,5.06.69a41.72,41.72,0,1,1-13-.15c1.44-.22,2.9-.37,4.35-.55Zm2.75,41.9,21,24.19a35.08,35.08,0,0,0,0-48.38ZM26,74.41,47,50.26,26,26.11C12.91,39.31,13.26,61.71,26,74.41Zm2.77,2.65c12.9,11.61,33.56,11,45.51,0Zm0-53.65H74.39A35.07,35.07,0,0,0,28.83,23.41Zm35.73,47-13-14.91-13,14.91ZM38.68,30.17,51.59,45,64.5,30.17Z"/>
    <path class="cls-1" d="M175.66,60.11V50.06l26.59-2.88c0,.6,0,1.07,0,1.54q0,13.26,0,26.52c0,1.57.07,1.63,1.6,1.64.88,0,1.76,0,2.64,0s1.27-.34,1.26-1.28c0-4.52,0-9,0-13.56q0-7,0-14V46.59l2-.19v1.49q0,13.68,0,27.36c0,1.6,0,1.62,1.59,1.63h2.28c1.49,0,1.56-.08,1.56-1.55q0-10.2,0-20.4c0-3,0-6,0-9.14l45.51-4.92V82.06h-151V57.2l60.63-6.56v1.52c0,7.76,0,15.52,0,23.28,0,1.1.31,1.55,1.42,1.46a14.65,14.65,0,0,1,2.16,0c1.1.07,2.07,0,1.85-1.8.58.46.94.71,1.27,1,1.68,1.54,3.56,1.54,5.05-.17a8.45,8.45,0,0,0,1.65-2.75A19.47,19.47,0,0,0,184,61.62a7.71,7.71,0,0,0-1-2.17c-1.5-2.3-3.62-2.52-5.65-.69C176.89,59.19,176.36,59.56,175.66,60.11Zm64.29,7.11a42.08,42.08,0,0,0-1.31-5.59,6,6,0,0,0-5.8-4.07c-3-.12-5.26,1.08-6.44,3.84a14.53,14.53,0,0,0-.1,11.64,6.69,6.69,0,0,0,6.9,4.16A6.24,6.24,0,0,0,239,72.42,47.73,47.73,0,0,0,239.94,67.22Zm-80.11,2.14c2.61,0,5,0,7.31,0,.76,0,1.38-.12,1.44-1a14.06,14.06,0,0,0-.85-6.82,6.29,6.29,0,0,0-6-3.94c-2.82-.08-5.07,1-6.2,3.65A14.23,14.23,0,0,0,155.89,74a6.88,6.88,0,0,0,9.7,2.3A5.35,5.35,0,0,0,168,72c.05-.68-.18-1.06-.95-1s-1.69-.08-2.51,0c-.45.07-.84.5-1.27.75s-1.14.83-1.69.8a2.07,2.07,0,0,1-1.37-1.07A7.5,7.5,0,0,1,159.84,69.36Zm31.8.15a3.08,3.08,0,0,1,.47-.13c2.28,0,4.55,0,6.83,0,1,0,1.48-.35,1.41-1.3a32.41,32.41,0,0,0-.6-5.78,6.14,6.14,0,0,0-6.29-4.73,6.31,6.31,0,0,0-6.6,4.51,15.17,15.17,0,0,0,.19,10.78c1.48,3.75,4.75,5.31,8.63,4.22a5.43,5.43,0,0,0,4.1-4.9c.08-.79-.11-1.23-1-1.18a22.46,22.46,0,0,1-2.4,0,1.48,1.48,0,0,0-1.43.8,2.17,2.17,0,0,1-1.66.79,2.09,2.09,0,0,1-1.35-1.09A6.39,6.39,0,0,1,191.64,69.51ZM247.11,60c-.28-2-.28-2-2.15-2-.84,0-1.68,0-2.52,0-.67,0-.92.26-.92.92q0,8.46,0,16.91c0,.8.38,1.06,1.1,1s1.68,0,2.52,0c1.82,0,1.82,0,1.82-1.77,0-3.36,0-6.72,0-10.08,0-1.19.52-1.79,1.48-1.74,1.15.05,1,.94,1,1.68,0,3.52,0,7,0,10.56,0,1.08.39,1.43,1.4,1.37a18,18,0,0,1,2.4,0c1.06.07,1.37-.39,1.36-1.41,0-4.4,0-8.8,0-13.19a8.24,8.24,0,0,0-.6-3,2.83,2.83,0,0,0-4.32-1.22c-.5.32-.91.78-1.37,1.15S247.58,59.68,247.11,60Zm-98.36-.13a2.25,2.25,0,0,1-.09-.56c.15-1.07-.32-1.42-1.36-1.34a27.35,27.35,0,0,1-3.12,0c-.73,0-1,.25-1,1q0,8.4,0,16.79c0,.86.37,1.13,1.16,1.12,1,0,1.92,0,2.88,0s1.46-.37,1.44-1.47c-.06-3,0-6.08,0-9.12a2.21,2.21,0,0,1,1.88-2.53c.6-.17,1.27-.12,1.88-.28.3-.08.75-.41.76-.64.06-1.74,0-3.49,0-5.23C151.06,57.25,150.33,59.34,148.75,59.89Zm74.38,7.45c0-2.72,0-5.43,0-8.15,0-1-.33-1.26-1.24-1.2a28.35,28.35,0,0,1-3.11,0c-.78,0-1,.23-1,1q0,8.39,0,16.78c0,.77.28,1.1,1,1.09,1,0,2.08,0,3.12,0s1.25-.35,1.23-1.28C223.09,72.85,223.12,70.09,223.12,67.34Zm-2.67-11.46a3.24,3.24,0,0,0,3.23-3.18,3.2,3.2,0,0,0-3.21-3.17,3.25,3.25,0,0,0-3.32,3.22A3.33,3.33,0,0,0,220.45,55.88Z"/>
    <path class="cls-1" d="M248.4,38.08l-21.51,2.33c0-.47,0-.85,0-1.23,0-3.6,0-7.2,0-10.8a9.83,9.83,0,0,0-.13-1.55c-.23-1.44-.74-2.72-2.3-3.21s-2.6.31-3.63,1.29c-.41.39-.89.71-1.42,1.12C219.07,24,219.07,24,217,24c-3.19,0-3.19,0-3.19,3.2,0,4.52,0,9,0,13.56,0,.87-.23,1.21-1.13,1.25-1.31.06-2.62.25-4,.39,4.23-4,4.08-8.87,2.79-13.86a6.27,6.27,0,0,0-6.59-5,6.43,6.43,0,0,0-6.51,5,16.18,16.18,0,0,0-.16,9A8.27,8.27,0,0,0,202.81,43L97.41,54.41V13.2h151ZM159.6,26a2.73,2.73,0,0,1-.11-.65c.2-1.24-.43-1.49-1.51-1.4a20.74,20.74,0,0,1-2.87,0c-.8,0-1,.28-1,1q0,8.33,0,16.66c0,1,.41,1.27,1.3,1.24s1.84,0,2.76,0,1.39-.37,1.38-1.41c-.05-3.55,0-7.11,0-10.67A1.41,1.41,0,0,1,161,29.24c1.05.05.89.84.89,1.5,0,3.6,0,7.19,0,10.79,0,1,.35,1.41,1.33,1.36a20.93,20.93,0,0,1,2.4,0c1.15.08,1.52-.4,1.51-1.55-.06-4.31,0-8.63-.05-12.94a8.89,8.89,0,0,0-.67-3.24,2.74,2.74,0,0,0-4-1.29,13.57,13.57,0,0,0-1.59,1.25C160.46,25.4,160.08,25.65,159.6,26Zm-49.55,9.36h1.37c1.92,0,3.84,0,5.75,0,1.19,0,1.73-.47,1.69-1.6a26.63,26.63,0,0,0-.28-4.28c-.78-3.87-3.14-5.91-6.69-6S106,25.33,105,29.21a15.61,15.61,0,0,0,.18,8.63c.91,2.94,2.64,5.09,5.94,5.49,3.79.47,6.93-1.83,7.15-5.21.05-.81-.15-1.21-1-1.17s-1.69-.07-2.51,0a1.78,1.78,0,0,0-1.15.73,1.53,1.53,0,0,1-1.91.81,2.91,2.91,0,0,1-1.3-1.34A6,6,0,0,1,110.05,35.36Zm24.6,7.52a11.75,11.75,0,0,0-.54-1.25c-1.43-2.45-2.85-4.9-4.34-7.31a1.89,1.89,0,0,1,0-2.2c1.33-2.28,2.59-4.58,3.87-6.89.2-.36.34-.74.58-1.27-1.78,0-3.34,0-4.89,0a1.34,1.34,0,0,0-1.44,1c-.39,1-.83,1.93-1.25,2.89l-.33,0c-.41-.94-.77-1.9-1.24-2.81-.2-.39-.59-.94-.92-1-1.73-.1-3.47,0-5.43,0,.27.56.41.91.6,1.24,1.22,2.2,2.4,4.42,3.7,6.57a2.46,2.46,0,0,1-.07,3c-1.41,2.22-2.72,4.51-4.05,6.78a12,12,0,0,0-.57,1.35c1.67,0,3.11,0,4.54,0a1.57,1.57,0,0,0,1.66-1.08c.39-.92.83-1.81,1.3-2.69a4,4,0,0,1,.67-.74,4.68,4.68,0,0,1,.64.78c.48.92.84,1.9,1.38,2.78a1.94,1.94,0,0,0,1.24.89C131.31,42.95,132.87,42.88,134.65,42.88Zm47.44-14.25V30q0,5.63,0,11.27c0,1.51.1,1.6,1.65,1.61.8,0,1.6,0,2.4,0,1,.06,1.42-.3,1.41-1.38-.05-3.87,0-7.75,0-11.63V28.63c1.76-.2,1.76-.2,1.76-2q0-.36,0-.72c0-1.8,0-1.8-1.76-2.17,0-1.29,0-2.61,0-3.92,0-.91-.33-1.2-1.19-1.16a26.48,26.48,0,0,1-3,0c-1-.07-1.33.39-1.28,1.35.06,1.27,0,2.54,0,3.78-1.76.23-1.76.23-1.76,2q0,.48,0,1C180.33,28.43,180.33,28.43,182.09,28.63Zm-39.4-4.72c0-1.47,0-2.86,0-4.25,0-.68-.26-.94-.91-.93-1.12,0-2.24,0-3.35,0-.92,0-1.18.37-1.16,1.21,0,1.31,0,2.62,0,3.92-2.17.29-1.73,0-1.8,2,0,.24,0,.48,0,.72,0,1.77,0,1.77,1.75,2,0,.34,0,.7,0,1.05,0,4,0,7.91,0,11.86,0,1,.37,1.38,1.34,1.33a23.8,23.8,0,0,1,2.63,0c1.06.07,1.48-.29,1.46-1.43-.06-3.87,0-7.75,0-11.62V28.59c1.8-.12,1.8-.12,1.8-1.8q0-.54,0-1.08C144.48,24,144.48,24,142.68,23.9Zm35.94,13.78c-2.22.42-2.81.34-3.32-.74a7.93,7.93,0,0,1,.05-7.16,1.68,1.68,0,0,1,2.23-.87c.28.1.58.14,1,.26,0-1.15,0-2.18,0-3.2a2.17,2.17,0,0,0-1.75-2.26,6.09,6.09,0,0,0-7.33,3.86,16,16,0,0,0,0,11.81,5.85,5.85,0,0,0,7.55,3.5c.81-.26,1.48-.69,1.52-1.64C178.66,40.09,178.63,38.94,178.63,37.68Zm-32.06-4.36c0,2.76,0,5.52,0,8.27,0,.75.17,1.28,1,1.28,1.16,0,2.32,0,3.48,0,.68,0,1-.36,1-1.06q0-8.45,0-16.9c0-.75-.33-1-1-1-1.08,0-2.16.06-3.24,0s-1.27.27-1.25,1.22C146.6,27.89,146.57,30.6,146.57,33.32Zm44.12,0c0,2.79,0,5.59,0,8.38,0,.9.34,1.23,1.19,1.21,1,0,2.07,0,3.11,0,.71,0,1.12-.25,1.12-1q0-8.5,0-17c0-.68-.3-.9-1-.88-1.08,0-2.16.06-3.23,0s-1.26.23-1.24,1.21C190.73,27.86,190.69,30.58,190.69,33.29ZM149.3,15.47a3.18,3.18,0,1,0,.08,6.36,3.18,3.18,0,1,0-.08-6.36Zm44,6.37a3.18,3.18,0,1,0,.17-6.35,3.18,3.18,0,1,0-.17,6.35Z"/>
    <path class="cls-1" d="M221.75,40.93l-2.38.3a4.79,4.79,0,0,1-.11-.71c0-3.16-.05-6.31,0-9.47a2.42,2.42,0,0,1,1-1.69c.75-.49,1.47,0,1.49.87C221.77,33.79,221.75,37.34,221.75,40.93Z"/>
    <path class="cls-1" d="M203.51,33.17c0-.87.09-1.78.13-2.7A1.32,1.32,0,0,1,205,29.08a1.27,1.27,0,0,1,1.45,1.27c.07,1.91.07,3.82,0,5.72A1.28,1.28,0,0,1,205,37.34,1.3,1.3,0,0,1,203.65,36C203.6,35,203.56,34.12,203.51,33.17Z"/>
    <path class="cls-1" d="M178.44,67.24c0,.88,0,1.76,0,2.63a1.4,1.4,0,0,1-2.81,0c0-1.79-.05-3.59,0-5.38a1.28,1.28,0,0,1,1.5-1.33,1.27,1.27,0,0,1,1.31,1.4C178.46,65.49,178.44,66.37,178.44,67.24Z"/>
    <path class="cls-1" d="M234,67.3,233.89,70a1.3,1.3,0,0,1-1.36,1.37,1.27,1.27,0,0,1-1.44-1.29c-.07-1.87-.06-3.75,0-5.63a1.25,1.25,0,0,1,1.42-1.29,1.27,1.27,0,0,1,1.37,1.34C233.94,65.46,234,66.38,234,67.3Z"/>
    <path class="cls-1" d="M161.69,65.49c-.61-.28-1.67.47-1.75-.83a2,2,0,0,1,1.78-2.15,1.9,1.9,0,0,1,1.78,2.12C163.45,66,162.29,65.17,161.69,65.49Z"/>
    <path class="cls-1" d="M193.5,65.49c-.61-.28-1.67.48-1.81-.75a2,2,0,0,1,1.84-2.23,1.93,1.93,0,0,1,1.72,2.18C195.15,66,194.08,65.19,193.5,65.49Z"/>
    <path class="cls-1" d="M111.6,31.63c-.45-.28-1.33-.51-1.42-.93A1.9,1.9,0,0,1,112,28.49a1.87,1.87,0,0,1,1.71,2.17C113.58,32.06,112.42,31.07,111.6,31.63Z"/>
  </g>
  <g>
    <path class="cls-2" d="M296.88,76.55c.07.72-.53.72-.53.72h-4.88s-.47,0-.53-.68c0,0-.28-5.09-.39-6.33s-.57-7.16-.57-7.16-1,5.92-1.22,7.14-1,6.36-1,6.36-.09.67-.62.67h-3.33c-.53,0-.62-.67-.62-.67s-.79-5.14-1-6.36S281,63.09,281,63.09s-.46,5.92-.57,7.16-.39,6.33-.39,6.33c-.06.73-.53.68-.53.68h-4.88s-.6,0-.53-.72c.19-1.81,1.39-13.22,1.24-11.85s1.21-13.41,1.24-13.8c.07-.77.66-.71.66-.71h5a.75.75,0,0,1,.7.71c.06.33.77,4.71,1.09,6.52a70.8,70.8,0,0,0,1.45,7.29,71,71,0,0,0,1.45-7.29c.32-1.81,1-6.2,1.09-6.52a.75.75,0,0,1,.7-.71h5s.59-.06.66.71c0,.39,1.38,15.11,1.24,13.8S296.69,74.74,296.88,76.55Z"/>
    <path class="cls-2" d="M318.92,77.27h-4.7a.88.88,0,0,1-.87-.69l-.63-3.51a.59.59,0,0,0-.6-.48H308a.59.59,0,0,0-.6.48l-.63,3.51a.88.88,0,0,1-.87.69h-4.7s-1.21.07-1-1c0,0,1.58-6.26,3.08-12.55,1.44-6,2.8-12.12,2.92-12.59.24-1,1.37-.94,1.37-.94h4.93s1.13,0,1.37.94c.12.48,1.49,6.56,2.93,12.62,1.49,6.27,3.06,12.52,3.06,12.52C320.13,77.34,318.92,77.27,318.92,77.27Zm-7.12-9.42-1.72-12.07a.42.42,0,0,0,0-.09.37.37,0,0,0,0,.09l-1.72,12.07a.57.57,0,0,0,.6.73h2.28A.56.56,0,0,0,311.8,67.85Z"/>
    <path class="cls-2" d="M336.85,69.58c0,1.55-.46,8.47-7.42,8.47a9.42,9.42,0,0,1-5.52-1.73,1,1,0,0,1-.55-.87V69.7c0-.51.51-.24.79-.06,1.4.91,3.24,1.9,4.62,1.9a2.14,2.14,0,0,0,2.32-2.06c0-1.39-.37-2.65-3.2-4.57s-4.84-4.11-4.84-7.33c0-4.87,2.32-8.16,6.88-8.16a11.52,11.52,0,0,1,4.41.86,1,1,0,0,1,.7.93v5c0,.66-.42.34-.62.24a7.21,7.21,0,0,0-3.06-1.14c-1.92,0-2.54,1.17-2.36,2.43s2.36,2.56,4.09,4.29A9.23,9.23,0,0,1,336.85,69.58Z"/>
    <path class="cls-2" d="M353.78,69.58c0,1.55-.46,8.47-7.42,8.47a9.42,9.42,0,0,1-5.52-1.73,1,1,0,0,1-.55-.87V69.7c0-.51.51-.24.79-.06,1.4.91,3.24,1.9,4.62,1.9A2.14,2.14,0,0,0,348,69.48c0-1.39-.37-2.65-3.2-4.57S340,60.81,340,57.58c0-4.87,2.32-8.16,6.88-8.16a11.52,11.52,0,0,1,4.41.86,1,1,0,0,1,.7.93v5c0,.66-.42.34-.62.24a7.21,7.21,0,0,0-3.06-1.14c-1.92,0-2.54,1.17-2.36,2.43S348.29,60.26,350,62A9.23,9.23,0,0,1,353.78,69.58Z"/>
    <path class="cls-2" d="M375.18,77.27h-4.7a.88.88,0,0,1-.87-.69L369,73.07a.59.59,0,0,0-.6-.48h-4.13a.59.59,0,0,0-.6.48L363,76.58a.88.88,0,0,1-.87.69h-4.7s-1.21.07-1-1c0,0,1.58-6.26,3.08-12.55,1.44-6,2.8-12.12,2.92-12.59.24-1,1.37-.94,1.37-.94h4.93s1.13,0,1.37.94c.12.48,1.49,6.56,2.93,12.62,1.49,6.27,3.06,12.52,3.06,12.52C376.39,77.34,375.18,77.27,375.18,77.27Zm-7.12-9.42-1.72-12.07a.42.42,0,0,0,0-.09.37.37,0,0,0,0,.09l-1.72,12.07a.57.57,0,0,0,.6.73h2.28A.56.56,0,0,0,368.06,67.85Z"/>
    <path class="cls-2" d="M393.18,72.52v4.22a.75.75,0,0,1-.36.63,13.86,13.86,0,0,1-4.67.67c-6.68,0-9.82-7.35-9.82-14.31,0-9,5.59-14.34,10-14.34a10,10,0,0,1,4.38.81.73.73,0,0,1,.43.68v4.21a.64.64,0,0,1-.91.69,5.85,5.85,0,0,0-2-.25c-3,0-5.81,3.91-5.82,8.44,0,4.06,2.69,8.12,5.82,8.12a8.33,8.33,0,0,0,2-.22C393.26,71.69,393.18,72.52,393.18,72.52Z"/>
    <path class="cls-2" d="M413.49,76s.07,1.29-1,1.29h-4.22a1.27,1.27,0,0,1-1.15-1.34c0-.52.11-3.12.11-4,0-.7.07-4.07.09-5.14a.32.32,0,0,0-.29-.32h-4.13a.31.31,0,0,0-.29.32c0,1.06.09,4.44.09,5.14,0,.91.11,3.51.11,4a1.27,1.27,0,0,1-1.15,1.34h-4.22c-1.06,0-1-1.29-1-1.29s.13-10.56.13-12.26S396.48,51,396.48,51s-.09-.8,1-.8h4.24a1.12,1.12,0,0,1,1.13,1.13s0,2.3-.08,3.62c0,1-.1,4.51-.12,5.67,0,.38.29.38.29.38H407s.29,0,.29-.37c0-1.16-.09-4.66-.12-5.67,0-1.32-.08-3.62-.08-3.62a1.12,1.12,0,0,1,1.13-1.13h4.24c1.07,0,1,.8,1,.8s-.11,10.09-.11,12.74S413.49,76,413.49,76Z"/>
    <path class="cls-2" d="M434.54,58.52c0,3.89,0,7.8,0,7.8,0,5.26-.58,11.72-8.51,11.72s-8.51-6.27-8.51-11.72c0,0,0-5.61,0-7.8s0-7.22,0-7.62a.64.64,0,0,1,.65-.71H423a.7.7,0,0,1,.72.71c0,.35-.06,5.46-.06,7.62s.06,7.65.06,7.65c0,4.5.08,6.06,2.36,6.06s2.36-1.86,2.36-6.06c0,0,.08-3.82.08-7.65,0-3.63-.08-7.27-.08-7.62a.67.67,0,0,1,.68-.71h4.79a.67.67,0,0,1,.68.71C434.57,51.25,434.54,54.87,434.54,58.52Z"/>
    <path class="cls-2" d="M452,69.58c0,1.55-.46,8.47-7.42,8.47a9.42,9.42,0,0,1-5.52-1.73,1,1,0,0,1-.55-.87V69.7c0-.51.51-.24.79-.06,1.4.91,3.24,1.9,4.62,1.9a2.14,2.14,0,0,0,2.32-2.06c0-1.39-.37-2.65-3.2-4.57s-4.84-4.11-4.84-7.33c0-4.87,2.32-8.16,6.88-8.16a11.52,11.52,0,0,1,4.41.86,1,1,0,0,1,.7.93v5c0,.66-.42.34-.62.24a7.21,7.21,0,0,0-3.06-1.14c-1.92,0-2.54,1.17-2.36,2.43s2.36,2.56,4.09,4.29A9.23,9.23,0,0,1,452,69.58Z"/>
    <path class="cls-2" d="M467.31,72.32v4.31s0,.63-.91.63h-10a1,1,0,0,1-1-1l.18-12.5-.18-12.5a1,1,0,0,1,1-1h10c.9,0,.91.63.91.63v4.31s.06.69-.92.66c-.81,0-2,0-2.69,0h-2a.18.18,0,0,0-.19.2v4.66s0,.29.2.29h4.46c.66,0,.6.54.6.54V66s.05.54-.6.54h-4.46c-.2,0-.2.29-.2.29v4.66a.18.18,0,0,0,.19.2h2c.72,0,1.88,0,2.69,0C467.37,71.62,467.31,72.32,467.31,72.32Z"/>
    <path class="cls-2" d="M484.72,50.9v4.37a.68.68,0,0,1-.78.69h-2.87s-.33,0-.33.26c0,.1,0,3.48,0,7.51,0,5,0,10.9,0,12.87a.64.64,0,0,1-.64.67h-4.81a.68.68,0,0,1-.7-.69c0-.41.07-7.22.07-12.85,0-4-.07-7.37-.07-7.51,0-.33-.35-.26-.35-.26h-3a.66.66,0,0,1-.66-.69V50.9a.63.63,0,0,1,.64-.71h12.7S484.72,50.19,484.72,50.9Z"/>
    <path class="cls-2" d="M502.14,50.9v4.37a.68.68,0,0,1-.78.69h-2.87s-.33,0-.33.26c0,.1,0,3.48,0,7.51,0,5,0,10.9,0,12.87a.64.64,0,0,1-.64.67h-4.81a.68.68,0,0,1-.7-.69c0-.41.07-7.22.07-12.85,0-4-.07-7.37-.07-7.51,0-.33-.35-.26-.35-.26h-3a.66.66,0,0,1-.66-.69V50.9a.63.63,0,0,1,.64-.71h12.7S502.14,50.19,502.14,50.9Z"/>
    <path class="cls-2" d="M519.2,69.58c0,1.55-.46,8.47-7.42,8.47a9.42,9.42,0,0,1-5.52-1.73,1,1,0,0,1-.55-.87V69.7c0-.51.51-.24.79-.06,1.4.91,3.24,1.9,4.62,1.9a2.14,2.14,0,0,0,2.32-2.06c0-1.39-.37-2.65-3.2-4.57s-4.84-4.11-4.84-7.33c0-4.87,2.32-8.16,6.88-8.16a11.52,11.52,0,0,1,4.41.86,1,1,0,0,1,.7.93v5c0,.66-.42.34-.62.24a7.21,7.21,0,0,0-3.06-1.14c-1.92,0-2.54,1.17-2.36,2.43s2.36,2.56,4.09,4.29A9.23,9.23,0,0,1,519.2,69.58Z"/>
  </g>
</svg>
